<svg xmlns="http://www.w3.org/2000/svg" version="1.1" xmlns:xlink="http://www.w3.org/1999/xlink" xmlns:svgjs="http://svgjs.com/svgjs" width="512" height="512" x="0" y="0" viewBox="0 0 128 128" style="enable-background:new 0 0 512 512" xml:space="preserve" class=""><g><path d="M111.17 68.29a14.82 14.82 0 1 0-16.66 0 25 25 0 0 0-7.44 4.14 35.13 35.13 0 0 0-13.18-7.23 20.36 20.36 0 1 0-19.77 0 35.13 35.13 0 0 0-13.18 7.23 25 25 0 0 0-7.44-4.14 14.83 14.83 0 1 0-16.66 0A25.21 25.21 0 0 0 0 92a2 2 0 0 0 4 0 21.17 21.17 0 0 1 34.05-16.76 35 35 0 0 0-9.22 23.71 2 2 0 0 0 4 0 31.17 31.17 0 0 1 62.33 0 2 2 0 0 0 4 0 35 35 0 0 0-9.22-23.71A21.17 21.17 0 0 1 124 92a2 2 0 0 0 4 0 25.21 25.21 0 0 0-16.83-23.71zM14.34 56a10.83 10.83 0 1 1 10.83 10.86A10.84 10.84 0 0 1 14.34 56zm33.3-8.62A16.36 16.36 0 1 1 64 63.78a16.38 16.38 0 0 1-16.36-16.36zM92 56a10.83 10.83 0 1 1 10.83 10.83A10.84 10.84 0 0 1 92 56z" fill="#ffffff" data-original="#000000" class=""></path></g></svg>