<svg xmlns="http://www.w3.org/2000/svg" version="1.1" xmlns:xlink="http://www.w3.org/1999/xlink" xmlns:svgjs="http://svgjs.com/svgjs" width="512" height="512" x="0" y="0" viewBox="0 0 512.001 512.001" style="enable-background:new 0 0 512 512" xml:space="preserve" class=""><g><path d="M457.26 126.02H345.075V69.268c0-8.894-7.21-16.104-16.104-16.104H183.029c-8.894 0-16.104 7.21-16.104 16.104v56.752H54.741C24.557 126.02 0 150.577 0 180.76v223.337c0 30.183 24.557 54.74 54.741 54.74H457.26c30.184 0 54.741-24.557 54.741-54.74V180.76c-.001-30.183-24.558-54.74-54.741-54.74zM199.133 85.373h113.733v40.648H199.133V85.373zM89.054 426.63H54.741c-12.425 0-22.533-10.108-22.533-22.532V180.76c0-12.424 10.108-22.532 22.533-22.532h34.313V426.63zm301.683 0H121.263V158.228h269.475V426.63zm89.055-22.532c0 12.424-10.108 22.532-22.533 22.532h-34.313V158.228h34.313c12.425 0 22.533 10.108 22.533 22.532v223.338z" fill="#ffffff" data-original="#000000" class=""></path></g></svg>