<?xml version="1.0" encoding="UTF-8"?>
<svg xmlns="http://www.w3.org/2000/svg" viewBox="0 0 24 24" width="512" height="512"><g id="Layer_2" data-name="Layer 2"><path d="M19,22.78H5A3.76,3.76,0,0,1,1.25,19V7A3.75,3.75,0,0,1,5,3.27H19A3.75,3.75,0,0,1,22.75,7V19A3.76,3.76,0,0,1,19,22.78ZM5,4.77A2.25,2.25,0,0,0,2.75,7V19A2.25,2.25,0,0,0,5,21.28H19A2.25,2.25,0,0,0,21.25,19V7A2.25,2.25,0,0,0,19,4.77Z"/><path d="M19,22.78H5A3.76,3.76,0,0,1,1.25,19V9.48A.75.75,0,0,1,2,8.73H22a.75.75,0,0,1,.75.75V19A3.76,3.76,0,0,1,19,22.78ZM2.75,10.23V19A2.25,2.25,0,0,0,5,21.28H19A2.25,2.25,0,0,0,21.25,19v-8.8Z"/><path d="M6.5,6.73A.76.76,0,0,1,5.75,6V2a.75.75,0,0,1,1.5,0V6A.76.76,0,0,1,6.5,6.73Z"/><path d="M12,6.73A.76.76,0,0,1,11.25,6V2a.75.75,0,0,1,1.5,0V6A.76.76,0,0,1,12,6.73Z"/><path d="M17.5,6.73A.76.76,0,0,1,16.75,6V2a.75.75,0,1,1,1.5,0V6A.76.76,0,0,1,17.5,6.73Z"/><circle cx="7" cy="13.48" r="1.25"/><circle cx="12" cy="13.48" r="1.25"/><circle cx="17" cy="13.48" r="1.25"/><circle cx="7" cy="17.48" r="1.25"/><circle cx="12" cy="17.48" r="1.25"/><circle cx="17" cy="17.48" r="1.25"/></g></svg>
