<?xml version="1.0" encoding="UTF-8" standalone="no"?>
<!-- Created with Inkscape (http://www.inkscape.org/) -->

<svg
   version="1.1"
   id="svg1506"
   xml:space="preserve"
   width="682.66669"
   height="682.66669"
   viewBox="0 0 682.66669 682.66669"
   xmlns="http://www.w3.org/2000/svg"
   xmlns:svg="http://www.w3.org/2000/svg"><defs
     id="defs1510"><clipPath
       clipPathUnits="userSpaceOnUse"
       id="clipPath1520"><path
         d="M 0,512 H 512 V 0 H 0 Z"
         id="path1518" /></clipPath><clipPath
       clipPathUnits="userSpaceOnUse"
       id="clipPath1548"><path
         d="M 0,512 H 512 V 0 H 0 Z"
         id="path1546" /></clipPath><clipPath
       clipPathUnits="userSpaceOnUse"
       id="clipPath1578"><path
         d="M 0,512 H 512 V 0 H 0 Z"
         id="path1576" /></clipPath></defs><g
     id="g1512"
     transform="matrix(1.3333333,0,0,-1.3333333,0,682.66667)"><g
       id="g1514"><g
         id="g1516"
         clip-path="url(#clipPath1520)"><g
           id="g1522"
           transform="translate(15,15)"><path
             d="M 0,0 H 482"
             style="fill:none;stroke:#000000;stroke-width:30;stroke-linecap:round;stroke-linejoin:round;stroke-miterlimit:10;stroke-dasharray:none;stroke-opacity:1"
             id="path1524" /></g><path
           d="m 46,227 h 90 V 15 H 46 Z"
           style="fill:none;stroke:#000000;stroke-width:30;stroke-linecap:round;stroke-linejoin:round;stroke-miterlimit:10;stroke-dasharray:none;stroke-opacity:1"
           id="path1526" /><path
           d="m 376,227 h 90 V 15 h -90 z"
           style="fill:none;stroke:#000000;stroke-width:30;stroke-linecap:round;stroke-linejoin:round;stroke-miterlimit:10;stroke-dasharray:none;stroke-opacity:1"
           id="path1528" /><g
           id="g1530"
           transform="translate(46,227)"><path
             d="M 0,0 45,90"
             style="fill:none;stroke:#000000;stroke-width:30;stroke-linecap:round;stroke-linejoin:round;stroke-miterlimit:10;stroke-dasharray:none;stroke-opacity:1"
             id="path1532" /></g></g></g><g
       id="g1534"
       transform="translate(91,317)"><path
         d="M 0,0 45,-90"
         style="fill:none;stroke:#000000;stroke-width:30;stroke-linecap:round;stroke-linejoin:round;stroke-miterlimit:10;stroke-dasharray:none;stroke-opacity:1"
         id="path1536" /></g><g
       id="g1538"
       transform="translate(376,227)"><path
         d="M 0,0 45,90"
         style="fill:none;stroke:#000000;stroke-width:30;stroke-linecap:round;stroke-linejoin:round;stroke-miterlimit:10;stroke-dasharray:none;stroke-opacity:1"
         id="path1540" /></g><g
       id="g1542"><g
         id="g1544"
         clip-path="url(#clipPath1548)"><g
           id="g1550"
           transform="translate(421,317)"><path
             d="M 0,0 45,-90"
             style="fill:none;stroke:#000000;stroke-width:30;stroke-linecap:round;stroke-linejoin:round;stroke-miterlimit:10;stroke-dasharray:none;stroke-opacity:1"
             id="path1552" /></g></g></g><g
       id="g1554"
       transform="translate(211,287)"><path
         d="M 0,0 45,90"
         style="fill:none;stroke:#000000;stroke-width:30;stroke-linecap:round;stroke-linejoin:round;stroke-miterlimit:10;stroke-dasharray:none;stroke-opacity:1"
         id="path1556" /></g><g
       id="g1558"
       transform="translate(256,377)"><path
         d="M 0,0 45,-90"
         style="fill:none;stroke:#000000;stroke-width:30;stroke-linecap:round;stroke-linejoin:round;stroke-miterlimit:10;stroke-dasharray:none;stroke-opacity:1"
         id="path1560" /></g><path
       d="m 211,287 h 90 v -60 h -90 z"
       style="fill:none;stroke:#000000;stroke-width:30;stroke-linecap:round;stroke-linejoin:round;stroke-miterlimit:10;stroke-dasharray:none;stroke-opacity:1"
       id="path1562" /><g
       id="g1564"
       transform="translate(136,227)"><path
         d="M 0,0 H 240"
         style="fill:none;stroke:#000000;stroke-width:30;stroke-linecap:round;stroke-linejoin:round;stroke-miterlimit:10;stroke-dasharray:none;stroke-opacity:1"
         id="path1566" /></g><g
       id="g1568"
       transform="translate(136,167)"><path
         d="M 0,0 H 240"
         style="fill:none;stroke:#000000;stroke-width:30;stroke-linecap:round;stroke-linejoin:round;stroke-miterlimit:10;stroke-dasharray:none;stroke-opacity:1"
         id="path1570" /></g><g
       id="g1572"><g
         id="g1574"
         clip-path="url(#clipPath1578)"><g
           id="g1580"
           transform="translate(256,106)"><path
             d="m 0,0 c 16.568,0 30,-13.432 30,-30 v -61 h -60 v 61 c 0,16.568 13.432,30 30,30 z"
             style="fill:none;stroke:#000000;stroke-width:30;stroke-linecap:round;stroke-linejoin:round;stroke-miterlimit:10;stroke-dasharray:none;stroke-opacity:1"
             id="path1582" /></g><g
           id="g1584"
           transform="translate(256,497)"><path
             d="M 0,0 V -120"
             style="fill:none;stroke:#000000;stroke-width:30;stroke-linecap:round;stroke-linejoin:round;stroke-miterlimit:10;stroke-dasharray:none;stroke-opacity:1"
             id="path1586" /></g><g
           id="g1588"
           transform="translate(256,497)"><path
             d="M 0,0 C 23.432,0 36.568,-30 60,-30 V -90 C 36.568,-90 23.432,-60 0,-60"
             style="fill:none;stroke:#000000;stroke-width:30;stroke-linecap:round;stroke-linejoin:round;stroke-miterlimit:10;stroke-dasharray:none;stroke-opacity:1"
             id="path1590" /></g><g
           id="g1592"
           transform="translate(421,437)"><path
             d="M 0,0 V -120"
             style="fill:none;stroke:#000000;stroke-width:30;stroke-linecap:round;stroke-linejoin:round;stroke-miterlimit:10;stroke-dasharray:none;stroke-opacity:1"
             id="path1594" /></g><g
           id="g1596"
           transform="translate(421,437)"><path
             d="M 0,0 C 23.432,0 36.568,-30 60,-30 V -90 C 36.568,-90 23.432,-60 0,-60"
             style="fill:none;stroke:#000000;stroke-width:30;stroke-linecap:round;stroke-linejoin:round;stroke-miterlimit:10;stroke-dasharray:none;stroke-opacity:1"
             id="path1598" /></g><g
           id="g1600"
           transform="translate(91,437)"><path
             d="M 0,0 V -120"
             style="fill:none;stroke:#000000;stroke-width:30;stroke-linecap:round;stroke-linejoin:round;stroke-miterlimit:10;stroke-dasharray:none;stroke-opacity:1"
             id="path1602" /></g><g
           id="g1604"
           transform="translate(91,437)"><path
             d="M 0,0 C 23.432,0 36.568,-30 60,-30 V -90 C 36.568,-90 23.432,-60 0,-60"
             style="fill:none;stroke:#000000;stroke-width:30;stroke-linecap:round;stroke-linejoin:round;stroke-miterlimit:10;stroke-dasharray:none;stroke-opacity:1"
             id="path1606" /></g></g></g></g></svg>
