<svg id="OKTOBER_x2F_100" enable-background="new 0 0 32 32" height="512" viewBox="0 0 32 32" width="512" xmlns="http://www.w3.org/2000/svg"><path d="m16 2c-7.7197266 0-14 6.2802734-14 14s6.2802734 14 14 14 14-6.2802734 14-14-6.2802734-14-14-14zm0 26c-6.6171875 0-12-5.3833008-12-12s5.3828125-12 12-12 12 5.3833008 12 12-5.3828125 12-12 12zm1-20v8c0 .3344727-.1669922.6464844-.4453125.8320313l-6 4c-.1708984.1137695-.3632812.1679687-.5537109.1679687-.3232422 0-.640625-.15625-.8330078-.4453125-.3066406-.4594727-.1826172-1.0805664.2773438-1.3867188l5.5546874-3.7031249v-7.4648438c0-.5522461.4472656-1 1-1s1 .4477539 1 1z"/></svg>